# xmcd
#
# Track frame offsets:
#	150
#	20524
#	34093
#	44608
#	62729
#	88631
#	106711
#	123056
#	140592
#	181890
#	196981
#	212114
#
# Disc length: 3062 seconds
#
# Revision: 0
# Processed by: cddbd v1.5.1PL0 Copyright (c) Steve Scherf et al.
# Submitted via: dBpowerAMP V4.0
#
DISCID=a20bf40c
DTITLE=Hades - Resisting Success
DYEAR=1987
DGENRE=Thrash
TTITLE0=The Leaders?
TTITLE1=On to Iliad
TTITLE2=Legal Tender
TTITLE3=Sweet Revenge
TTITLE4=Nightstalker
TTITLE5=Resist Success
TTITLE6=Widows Mite
TTITLE7=The Cross
TTITLE8=Masque of The Red Death
TTITLE9=Target Fixation
TTITLE10=Force Quit
TTITLE11=Thinktank
EXTD=
EXTT0=
EXTT1=
EXTT2=
EXTT3=
EXTT4=
EXTT5=
EXTT6=
EXTT7=
EXTT8=
EXTT9=
EXTT10=
EXTT11=
PLAYORDER=
